<mxfile host="app.diagrams.net" modified="2021-11-30T06:15:56.018Z" agent="5.0 (X11)" etag="QkzvGkhed1Vze0yDIpiK" version="15.8.6" type="gitlab">
  <diagram id="epoTe_lGTIAd2MM2K-It" name="Page-1">
    <mxGraphModel dx="496" dy="275" grid="1" gridSize="10" guides="1" tooltips="1" connect="1" arrows="1" fold="1" page="1" pageScale="1" pageWidth="850" pageHeight="1100" math="0" shadow="0">
      <root>
        <mxCell id="0" />
        <mxCell id="1" parent="0" />
        <mxCell id="5xJ0G61R2I69ar_kWDvs-1" value="Manusia/HUman" style="whiteSpace=wrap;html=1;aspect=fixed;" vertex="1" parent="1">
          <mxGeometry x="180" y="40" width="310" height="310" as="geometry" />
        </mxCell>
        <mxCell id="5xJ0G61R2I69ar_kWDvs-2" value="Tangan: Mengabil " style="rounded=0;whiteSpace=wrap;html=1;" vertex="1" parent="1">
          <mxGeometry x="200" y="50" width="120" height="60" as="geometry" />
        </mxCell>
        <mxCell id="5xJ0G61R2I69ar_kWDvs-3" value="Mata: Melihat " style="rounded=0;whiteSpace=wrap;html=1;" vertex="1" parent="1">
          <mxGeometry x="200" y="120" width="120" height="60" as="geometry" />
        </mxCell>
        <mxCell id="5xJ0G61R2I69ar_kWDvs-4" value="Telinga: Mendengar " style="rounded=0;whiteSpace=wrap;html=1;" vertex="1" parent="1">
          <mxGeometry x="340" y="50" width="120" height="60" as="geometry" />
        </mxCell>
        <mxCell id="5xJ0G61R2I69ar_kWDvs-5" value="Kaki:Berjalan " style="rounded=0;whiteSpace=wrap;html=1;" vertex="1" parent="1">
          <mxGeometry x="340" y="250" width="120" height="60" as="geometry" />
        </mxCell>
      </root>
    </mxGraphModel>
  </diagram>
</mxfile>
